<?xml version="1.0" standalone="no"?>
<!DOCTYPE svg PUBLIC "-//W3C//DTD SVG 20010904//EN"
 "http://www.w3.org/TR/2001/REC-SVG-20010904/DTD/svg10.dtd">
<svg version="1.0" xmlns="http://www.w3.org/2000/svg"
 width="512.000000pt" height="512.000000pt" viewBox="0 0 512.000000 512.000000"
 preserveAspectRatio="xMidYMid meet">

<g transform="translate(0.000000,512.000000) scale(0.100000,-0.100000)"
fill="#000000" stroke="none">
<path d="M0 5069 l0 -52 21 27 c46 59 -1 56 961 56 836 0 885 -1 917 -18 61
-33 71 -66 71 -237 0 -131 -3 -154 -20 -182 -43 -70 -19 -67 -577 -73 l-503
-5 701 -700 c385 -385 707 -712 715 -727 8 -15 14 -48 14 -74 0 -46 -2 -49
-107 -157 -119 -121 -154 -142 -217 -132 -38 6 -87 53 -758 723 l-717 716 -3
-517 -3 -517 -31 -31 c-39 -38 -82 -48 -214 -49 -146 0 -176 7 -216 47 l-34
34 0 -641 0 -641 34 34 c40 40 70 47 216 47 132 -1 175 -11 214 -49 l31 -31 3
-517 3 -517 717 716 c671 670 720 717 758 723 63 10 98 -11 217 -132 105 -108
107 -111 107 -157 0 -26 -6 -59 -14 -74 -8 -15 -330 -342 -715 -727 l-701
-700 503 -5 c558 -6 534 -3 577 -73 17 -28 20 -51 20 -182 0 -171 -10 -204
-71 -237 -32 -17 -81 -18 -917 -18 -962 0 -915 -3 -961 56 l-21 27 0 -52 0
-51 2560 0 2560 0 0 51 0 52 -21 -27 c-46 -59 1 -56 -961 -56 -836 0 -885 1
-917 18 -61 33 -71 66 -71 237 0 131 3 154 20 182 43 70 19 67 577 73 l503 5
-701 700 c-385 385 -707 712 -715 727 -8 15 -14 48 -14 74 0 46 2 49 108 157
118 121 153 142 216 132 38 -6 87 -53 758 -723 l717 -716 3 517 3 517 31 31
c39 38 82 48 214 49 146 0 176 -7 216 -47 l34 -34 0 641 0 641 -34 -34 c-40
-40 -70 -47 -216 -47 -132 1 -175 11 -214 49 l-31 31 -3 517 -3 517 -717 -716
c-671 -670 -720 -717 -758 -723 -63 -10 -98 11 -216 132 -106 108 -108 111
-108 157 0 26 6 59 14 74 8 15 330 342 715 727 l701 700 -503 5 c-558 6 -534
3 -577 73 -17 28 -20 51 -20 182 0 171 10 204 71 237 32 17 81 18 917 18 962
0 915 3 961 -56 l21 -27 0 52 0 51 -2560 0 -2560 0 0 -51z"/>
</g>
</svg>
